<mxfile host="app.diagrams.net" agent="Mozilla/5.0 (Windows NT 10.0; Win64; x64) AppleWebKit/537.36 (KHTML, like Gecko) Chrome/131.0.0.0 Safari/537.36" version="25.0.1">
  <diagram name="Page-1" id="lMTmRmjyhUbMDWZHtcbx">
    <mxGraphModel dx="884" dy="524" grid="1" gridSize="10" guides="1" tooltips="1" connect="1" arrows="1" fold="1" page="1" pageScale="1" pageWidth="827" pageHeight="1169" math="0" shadow="0">
      <root>
        <mxCell id="0" />
        <mxCell id="1" parent="0" />
        <mxCell id="k3BPN-bu7NdknagsuRA9-29" value="" style="rounded=0;whiteSpace=wrap;html=1;fillColor=#dae8fc;strokeColor=#6c8ebf;" vertex="1" parent="1">
          <mxGeometry x="167" y="800" width="660" height="350" as="geometry" />
        </mxCell>
        <mxCell id="k3BPN-bu7NdknagsuRA9-4" style="edgeStyle=orthogonalEdgeStyle;rounded=0;orthogonalLoop=1;jettySize=auto;html=1;exitX=0.5;exitY=1;exitDx=0;exitDy=0;entryX=0.5;entryY=0;entryDx=0;entryDy=0;" edge="1" parent="1" source="k3BPN-bu7NdknagsuRA9-1" target="k3BPN-bu7NdknagsuRA9-2">
          <mxGeometry relative="1" as="geometry" />
        </mxCell>
        <mxCell id="k3BPN-bu7NdknagsuRA9-10" value="Enemy : team ratio in favor&lt;div&gt;of self&lt;/div&gt;" style="edgeLabel;html=1;align=center;verticalAlign=middle;resizable=0;points=[];" vertex="1" connectable="0" parent="k3BPN-bu7NdknagsuRA9-4">
          <mxGeometry x="0.1071" y="1" relative="1" as="geometry">
            <mxPoint x="4" y="-21" as="offset" />
          </mxGeometry>
        </mxCell>
        <mxCell id="k3BPN-bu7NdknagsuRA9-1" value="Move state" style="rounded=0;whiteSpace=wrap;html=1;" vertex="1" parent="1">
          <mxGeometry x="340" y="200" width="120" height="60" as="geometry" />
        </mxCell>
        <mxCell id="k3BPN-bu7NdknagsuRA9-9" style="edgeStyle=orthogonalEdgeStyle;rounded=0;orthogonalLoop=1;jettySize=auto;html=1;exitX=0.5;exitY=1;exitDx=0;exitDy=0;entryX=0.5;entryY=0;entryDx=0;entryDy=0;" edge="1" parent="1" source="k3BPN-bu7NdknagsuRA9-2" target="k3BPN-bu7NdknagsuRA9-8">
          <mxGeometry relative="1" as="geometry" />
        </mxCell>
        <mxCell id="k3BPN-bu7NdknagsuRA9-15" style="edgeStyle=orthogonalEdgeStyle;rounded=0;orthogonalLoop=1;jettySize=auto;html=1;exitX=0.25;exitY=0;exitDx=0;exitDy=0;entryX=0;entryY=0.5;entryDx=0;entryDy=0;" edge="1" parent="1" source="k3BPN-bu7NdknagsuRA9-2" target="k3BPN-bu7NdknagsuRA9-13">
          <mxGeometry relative="1" as="geometry" />
        </mxCell>
        <mxCell id="k3BPN-bu7NdknagsuRA9-16" value="Enemy went out of view range" style="edgeLabel;html=1;align=center;verticalAlign=middle;resizable=0;points=[];" vertex="1" connectable="0" parent="k3BPN-bu7NdknagsuRA9-15">
          <mxGeometry x="0.4955" y="1" relative="1" as="geometry">
            <mxPoint x="11" y="-19" as="offset" />
          </mxGeometry>
        </mxCell>
        <mxCell id="k3BPN-bu7NdknagsuRA9-2" value="Chase state" style="rounded=0;whiteSpace=wrap;html=1;" vertex="1" parent="1">
          <mxGeometry x="130" y="400" width="120" height="60" as="geometry" />
        </mxCell>
        <mxCell id="k3BPN-bu7NdknagsuRA9-19" style="edgeStyle=orthogonalEdgeStyle;rounded=0;orthogonalLoop=1;jettySize=auto;html=1;exitX=1;exitY=0.5;exitDx=0;exitDy=0;entryX=0.25;entryY=1;entryDx=0;entryDy=0;" edge="1" parent="1" source="k3BPN-bu7NdknagsuRA9-8" target="k3BPN-bu7NdknagsuRA9-1">
          <mxGeometry relative="1" as="geometry" />
        </mxCell>
        <mxCell id="k3BPN-bu7NdknagsuRA9-8" value="Attack state" style="rounded=0;whiteSpace=wrap;html=1;" vertex="1" parent="1">
          <mxGeometry x="130" y="525" width="120" height="60" as="geometry" />
        </mxCell>
        <mxCell id="k3BPN-bu7NdknagsuRA9-18" style="edgeStyle=orthogonalEdgeStyle;rounded=0;orthogonalLoop=1;jettySize=auto;html=1;exitX=0.5;exitY=1;exitDx=0;exitDy=0;entryX=0.5;entryY=0;entryDx=0;entryDy=0;" edge="1" parent="1" source="k3BPN-bu7NdknagsuRA9-13" target="k3BPN-bu7NdknagsuRA9-1">
          <mxGeometry relative="1" as="geometry" />
        </mxCell>
        <mxCell id="k3BPN-bu7NdknagsuRA9-13" value="LocateTower state" style="rounded=0;whiteSpace=wrap;html=1;" vertex="1" parent="1">
          <mxGeometry x="340" y="110" width="120" height="60" as="geometry" />
        </mxCell>
        <mxCell id="k3BPN-bu7NdknagsuRA9-20" value="Death state" style="rounded=0;whiteSpace=wrap;html=1;" vertex="1" parent="1">
          <mxGeometry x="740" y="110" width="120" height="60" as="geometry" />
        </mxCell>
        <mxCell id="k3BPN-bu7NdknagsuRA9-21" value="If health goes to 0" style="text;html=1;align=center;verticalAlign=middle;resizable=0;points=[];autosize=1;strokeColor=none;fillColor=none;" vertex="1" parent="1">
          <mxGeometry x="740" y="70" width="120" height="30" as="geometry" />
        </mxCell>
        <mxCell id="k3BPN-bu7NdknagsuRA9-24" style="edgeStyle=orthogonalEdgeStyle;rounded=0;orthogonalLoop=1;jettySize=auto;html=1;exitX=0;exitY=0.25;exitDx=0;exitDy=0;entryX=1;entryY=0.5;entryDx=0;entryDy=0;" edge="1" parent="1" source="k3BPN-bu7NdknagsuRA9-22" target="k3BPN-bu7NdknagsuRA9-1">
          <mxGeometry relative="1" as="geometry" />
        </mxCell>
        <mxCell id="k3BPN-bu7NdknagsuRA9-22" value="OnDamaged state" style="rounded=0;whiteSpace=wrap;html=1;" vertex="1" parent="1">
          <mxGeometry x="740" y="210" width="120" height="60" as="geometry" />
        </mxCell>
        <mxCell id="k3BPN-bu7NdknagsuRA9-23" value="If damaged" style="text;html=1;align=center;verticalAlign=middle;whiteSpace=wrap;rounded=0;" vertex="1" parent="1">
          <mxGeometry x="755" y="180" width="90" height="40" as="geometry" />
        </mxCell>
        <mxCell id="k3BPN-bu7NdknagsuRA9-32" style="edgeStyle=orthogonalEdgeStyle;rounded=0;orthogonalLoop=1;jettySize=auto;html=1;exitX=0.5;exitY=1;exitDx=0;exitDy=0;entryX=0.5;entryY=0;entryDx=0;entryDy=0;" edge="1" parent="1" source="k3BPN-bu7NdknagsuRA9-30" target="k3BPN-bu7NdknagsuRA9-31">
          <mxGeometry relative="1" as="geometry" />
        </mxCell>
        <mxCell id="k3BPN-bu7NdknagsuRA9-33" value="enemy enters range" style="edgeLabel;html=1;align=center;verticalAlign=middle;resizable=0;points=[];" vertex="1" connectable="0" parent="k3BPN-bu7NdknagsuRA9-32">
          <mxGeometry x="0.2626" y="-2" relative="1" as="geometry">
            <mxPoint as="offset" />
          </mxGeometry>
        </mxCell>
        <mxCell id="k3BPN-bu7NdknagsuRA9-37" style="edgeStyle=orthogonalEdgeStyle;rounded=0;orthogonalLoop=1;jettySize=auto;html=1;exitX=0;exitY=0.5;exitDx=0;exitDy=0;" edge="1" parent="1" source="k3BPN-bu7NdknagsuRA9-30" target="k3BPN-bu7NdknagsuRA9-36">
          <mxGeometry relative="1" as="geometry" />
        </mxCell>
        <mxCell id="k3BPN-bu7NdknagsuRA9-38" value="If spawntimer exceeded" style="edgeLabel;html=1;align=center;verticalAlign=middle;resizable=0;points=[];" vertex="1" connectable="0" parent="k3BPN-bu7NdknagsuRA9-37">
          <mxGeometry x="0.1457" y="4" relative="1" as="geometry">
            <mxPoint x="4" y="-44" as="offset" />
          </mxGeometry>
        </mxCell>
        <mxCell id="k3BPN-bu7NdknagsuRA9-30" value="Idle state" style="rounded=0;whiteSpace=wrap;html=1;" vertex="1" parent="1">
          <mxGeometry x="360" y="880" width="120" height="60" as="geometry" />
        </mxCell>
        <mxCell id="k3BPN-bu7NdknagsuRA9-31" value="Attack state" style="rounded=0;whiteSpace=wrap;html=1;" vertex="1" parent="1">
          <mxGeometry x="360" y="1070" width="120" height="60" as="geometry" />
        </mxCell>
        <mxCell id="k3BPN-bu7NdknagsuRA9-34" value="OnDamagedState" style="rounded=0;whiteSpace=wrap;html=1;" vertex="1" parent="1">
          <mxGeometry x="590" y="880" width="120" height="60" as="geometry" />
        </mxCell>
        <mxCell id="k3BPN-bu7NdknagsuRA9-35" value="If damaged, attempts to signal for help from allies" style="text;html=1;align=center;verticalAlign=middle;whiteSpace=wrap;rounded=0;" vertex="1" parent="1">
          <mxGeometry x="570" y="840" width="140" height="30" as="geometry" />
        </mxCell>
        <mxCell id="k3BPN-bu7NdknagsuRA9-36" value="Spawn Minion state" style="rounded=0;whiteSpace=wrap;html=1;" vertex="1" parent="1">
          <mxGeometry x="180" y="880" width="120" height="60" as="geometry" />
        </mxCell>
        <mxCell id="k3BPN-bu7NdknagsuRA9-39" value="OnDeathState" style="rounded=0;whiteSpace=wrap;html=1;" vertex="1" parent="1">
          <mxGeometry x="570" y="1000" width="120" height="60" as="geometry" />
        </mxCell>
        <mxCell id="k3BPN-bu7NdknagsuRA9-41" value="If dead, sends a message to the scene to end the game" style="text;html=1;align=center;verticalAlign=middle;whiteSpace=wrap;rounded=0;" vertex="1" parent="1">
          <mxGeometry x="560" y="960" width="140" height="30" as="geometry" />
        </mxCell>
      </root>
    </mxGraphModel>
  </diagram>
</mxfile>
